<svg width="32" height="33" viewBox="0 0 32 33" fill="none" xmlns="http://www.w3.org/2000/svg">
<g clip-path="url(#clip0_1280_2525)">
<path d="M15.5217 0.34574C15.6699 -0.106132 16.3167 -0.106132 16.4649 0.34574L17.3811 3.15001C17.4485 3.34937 17.6371 3.49556 17.8527 3.49556H20.8438C21.3289 3.49556 21.531 4.10692 21.1403 4.38601L18.7285 6.11376C18.5533 6.23338 18.4859 6.45931 18.5533 6.65867L19.4695 9.46294C19.6177 9.91481 19.0923 10.2869 18.7015 10.0078L16.2897 8.28009C16.1146 8.16048 15.872 8.16048 15.6969 8.28009L13.2851 10.0078C12.8944 10.2869 12.3689 9.91481 12.5171 9.46294L13.4333 6.65867C13.5007 6.45931 13.4333 6.23338 13.2582 6.11376L10.8464 4.38601C10.4556 4.10692 10.6577 3.49556 11.1428 3.49556H14.1339C14.3495 3.49556 14.5382 3.36266 14.6055 3.15001L15.5217 0.34574Z" fill="#B2B5C9"/>
<path d="M27.7693 15.2705H22.5416C21.7825 15.2705 21.1672 15.8774 21.1672 16.6261V30.1557C21.1672 30.9044 21.7825 31.5113 22.5416 31.5113H27.7693C28.5284 31.5113 29.1437 30.9044 29.1437 30.1557V16.6261C29.1437 15.8774 28.5284 15.2705 27.7693 15.2705Z" fill="#D4D5E3"/>
<path d="M9.47198 20.4805H4.24419C3.48518 20.4805 2.86987 21.0874 2.86987 21.8361V29.6774C2.86987 30.4261 3.48518 31.033 4.24419 31.033H9.47198C10.231 31.033 10.8463 30.4261 10.8463 29.6774V21.8361C10.8463 21.0874 10.231 20.4805 9.47198 20.4805Z" fill="#D4D5E3"/>
<path d="M18.6207 11.9609H13.3929C12.6339 11.9609 12.0186 12.5679 12.0186 13.3166V29.0258C12.0186 29.7745 12.6339 30.3814 13.3929 30.3814H18.6207C19.3797 30.3814 19.995 29.7745 19.995 29.0258V13.3166C19.995 12.5679 19.3797 11.9609 18.6207 11.9609Z" fill="#D4D5E3"/>
<path d="M30.9221 28.8936H1.07789C0.48259 28.8936 0 29.3696 0 29.9568V31.9371C0 32.5243 0.48259 33.0003 1.07789 33.0003H30.9221C31.5174 33.0003 32 32.5243 32 31.9371V29.9568C32 29.3696 31.5174 28.8936 30.9221 28.8936Z" fill="#B2B5C9"/>
</g>
<defs>
<clipPath id="clip0_1280_2525">
<rect width="32" height="33" fill="white"/>
</clipPath>
</defs>
</svg>
