<svg width="25" height="25" viewBox="0 0 25 25" fill="none" xmlns="http://www.w3.org/2000/svg">
<g clip-path="url(#clip0_1280_2520)">
<path d="M9.47335 0H1.40579C0.629394 0 0 0.62286 0 1.3912V9.375C0 10.1433 0.629394 10.7662 1.40579 10.7662H9.47335C10.2497 10.7662 10.8791 10.1433 10.8791 9.375V1.3912C10.8791 0.62286 10.2497 0 9.47335 0Z" fill="#D4D5E3"/>
<path d="M23.4055 0H15.3379C14.5615 0 13.9321 0.62286 13.9321 1.3912V9.375C13.9321 10.1433 14.5615 10.7662 15.3379 10.7662H23.4055C24.1819 10.7662 24.8113 10.1433 24.8113 9.375V1.3912C24.8113 0.62286 24.1819 0 23.4055 0Z" fill="#D4D5E3"/>
<path d="M9.47335 13.7354H1.40579C0.629394 13.7354 0 14.3582 0 15.1265V23.1104C0 23.8787 0.629394 24.5015 1.40579 24.5015H9.47335C10.2497 24.5015 10.8791 23.8787 10.8791 23.1104V15.1265C10.8791 14.3582 10.2497 13.7354 9.47335 13.7354Z" fill="#D4D5E3"/>
<path d="M19.0622 24.9898C22.3416 24.9898 25.0001 22.3589 25.0001 19.1136C25.0001 15.8682 22.3416 13.2373 19.0622 13.2373C15.7828 13.2373 13.1243 15.8682 13.1243 19.1136C13.1243 22.3589 15.7828 24.9898 19.0622 24.9898Z" fill="#B2B5C9"/>
</g>
<defs>
<clipPath id="clip0_1280_2520">
<rect width="25" height="25" fill="white"/>
</clipPath>
</defs>
</svg>
